HIERARCHY
ROOT Hips
{
	OFFSET 0.000000 0.000000 0.000000
	CHANNELS 6 Xposition Yposition Zposition Zrotation Yrotation Xrotation 
	JOINT LHipJoint
	{
		OFFSET 0.000000 0.000000 0.000000
		CHANNELS 3 Zrotation Yrotation Xrotation
		JOINT LeftUpLeg
		{
			OFFSET 1.363060 -1.794630 0.839290
			CHANNELS 3 Zrotation Yrotation Xrotation
			JOINT LeftLeg
			{
				OFFSET 2.448110 -6.726130 0.000000
				CHANNELS 3 Zrotation Yrotation Xrotation
				JOINT LeftFoot
				{
					OFFSET 2.562200 -7.039590 0.000000
					CHANNELS 3 Zrotation Yrotation Xrotation
					JOINT LeftToeBase
					{
						OFFSET 0.157640 -0.433110 2.322550
						CHANNELS 3 Zrotation Yrotation Xrotation
						End Site
						{
							OFFSET 0.000000 0.000000 0.000000
						}
					}
				}
			}
		}
	}
	JOINT RHipJoint
	{
		OFFSET 0.000000 0.000000 0.000000
		CHANNELS 3 Zrotation Yrotation Xrotation
		JOINT RightUpLeg
		{
			OFFSET -1.305520 -1.794630 0.839290
			CHANNELS 3 Zrotation Yrotation Xrotation
			JOINT RightLeg
			{
				OFFSET -2.542530 -6.985550 0.000000
				CHANNELS 3 Zrotation Yrotation Xrotation
				JOINT RightFoot
				{
					OFFSET -2.568260 -7.056230 0.000000
					CHANNELS 3 Zrotation Yrotation Xrotation
					JOINT RightToeBase
					{
						OFFSET -0.164730 -0.452590 2.363150
						CHANNELS 3 Zrotation Yrotation Xrotation
						End Site
						{
							OFFSET 0.000000 0.000000 0.000000
						}
					}
				}
			}
		}
	}
	JOINT LowerBack
	{
		OFFSET 0.000000 0.000000 0.000000
		CHANNELS 3 Zrotation Yrotation Xrotation
		JOINT Spine
		{
			OFFSET 0.028270 2.035590 -0.193380
			CHANNELS 3 Zrotation Yrotation Xrotation
			JOINT Spine1
			{
				OFFSET 0.056720 2.048850 -0.042750
				CHANNELS 3 Zrotation Yrotation Xrotation
				JOINT Neck
				{
					OFFSET 0.000000 0.000000 0.000000
					CHANNELS 3 Zrotation Yrotation Xrotation
					JOINT Neck1
					{
						OFFSET -0.054170 1.746240 0.172020
						CHANNELS 3 Zrotation Yrotation Xrotation
						JOINT Head
						{
							OFFSET 0.104070 1.761360 -0.123970
							CHANNELS 3 Zrotation Yrotation Xrotation
							End Site
							{
								OFFSET 0.000000 0.000000 0.000000
							}
						}
					}
				}
				JOINT LeftShoulder
				{
					OFFSET 0.000000 0.000000 0.000000
					CHANNELS 3 Zrotation Yrotation Xrotation
					JOINT LeftArm
					{
						OFFSET 3.362410 1.200890 -0.311210
						CHANNELS 3 Zrotation Yrotation Xrotation
						JOINT LeftForeArm
						{
							OFFSET 4.983000 -0.000000 -0.000000
							CHANNELS 3 Zrotation Yrotation Xrotation
							JOINT LeftHand
							{
								OFFSET 3.483560 -0.000000 -0.000000
								CHANNELS 3 Zrotation Yrotation Xrotation
								JOINT LeftFingerBase
								{
									OFFSET 0.000000 0.000000 0.000000
									CHANNELS 3 Zrotation Yrotation Xrotation
									JOINT LeftHandIndex1
									{
										OFFSET 0.715260 -0.000000 -0.000000
										CHANNELS 3 Zrotation Yrotation Xrotation
										End Site
										{
											OFFSET 0.000000 0.000000 0.000000
										}
									}
								}
								JOINT LThumb
								{
									OFFSET 0.000000 0.000000 0.000000
									CHANNELS 3 Zrotation Yrotation Xrotation
									End Site
									{
										OFFSET 0.000000 0.000000 0.000000
									}
								}
							}
						}
					}
				}
				JOINT RightShoulder
				{
					OFFSET 0.000000 0.000000 0.000000
					CHANNELS 3 Zrotation Yrotation Xrotation
					JOINT RightArm
					{
						OFFSET -3.136600 1.374050 -0.404650
						CHANNELS 3 Zrotation Yrotation Xrotation
						JOINT RightForeArm
						{
							OFFSET -5.241900 -0.000000 -0.000000
							CHANNELS 3 Zrotation Yrotation Xrotation
							JOINT RightHand
							{
								OFFSET -3.444170 -0.000000 -0.000000
								CHANNELS 3 Zrotation Yrotation Xrotation
								JOINT RightFingerBase
								{
									OFFSET 0.000000 0.000000 0.000000
									CHANNELS 3 Zrotation Yrotation Xrotation
									JOINT RightHandIndex1
									{
										OFFSET -0.622530 -0.000000 -0.000000
										CHANNELS 3 Zrotation Yrotation Xrotation
										End Site
										{
											OFFSET 0.000000 0.000000 0.000000
										}
									}
								}
								JOINT RThumb
								{
									OFFSET 0.000000 0.000000 0.000000
									CHANNELS 3 Zrotation Yrotation Xrotation
									End Site
									{
										OFFSET 0.000000 0.000000 0.000000
									}
								}
							}
						}
					}
				}
			}
		}
	}
}
MOTION
Frames: 4
Frame Time: 0.008333
-27.370344 17.309292 8.933682 -173.588912 -7.974797 -179.034546 16.201525 1.893181 -2.409352 -12.230250 -31.030379 -8.750014 -8.995731 7.650297 14.955855 0.000828 2.325652 6.257083 13.368400 -18.911200 -70.266000 -21.430950 -3.501302 -5.309489 50.926468 13.553520 12.072030 15.025363 -0.420237 3.065182 -3.963111 -13.236996 -41.385113 -0.828800 -5.808300 16.229100 6.673365 2.973380 11.753950 1.247513 4.265282 -4.418363 -1.959640 1.464395 -14.867185 6.253055 9.674117 -12.984014 5.197341 9.769723 18.887128 0.156400 4.270100 14.529100 8.810150 -7.417174 0.335604 -78.205916 8.481496 -0.300696 136.913846 -43.351557 -103.443874 0.252454 0.001331 -64.985696 27.229460 32.088056 15.339400 -7.125000 0.000000 0.000000 -6.428500 65.342000 -3.166300 -8.981669 7.740738 0.778451 74.506522 -20.365221 27.010900 -122.553478 50.393798 -87.502637 1.417310 -1.066294 -15.670291 -17.402037 -16.959811 5.070300 7.125000 0.000000 0.000000 8.600000 -45.974400 -0.208400 
-27.385308 17.317104 8.952718 -173.672463 -8.118165 -178.960380 16.223670 1.859820 -2.427977 -12.371385 -31.227238 -8.674249 -9.066084 7.534664 14.636803 -0.087574 2.715979 6.217790 13.427300 -18.931000 -70.447500 -21.444303 -3.440159 -5.230236 51.163358 14.680327 12.710548 15.110278 -0.048069 2.399692 -4.098274 -13.968299 -42.439488 -0.957300 -6.230200 17.453800 6.713546 3.067282 11.708374 1.165558 4.409855 -4.443094 -2.184768 1.500743 -14.886288 5.756974 9.182349 -13.180802 5.265772 9.098148 19.089317 0.259800 3.895200 14.668500 8.750783 -7.414780 0.329352 -77.064646 8.267924 -0.826560 138.591864 -42.156910 -104.751869 0.325617 -0.030922 -64.910048 27.617677 32.118509 15.633100 -7.125000 0.000000 0.000000 -6.021000 65.579000 -2.997900 -9.032408 7.725770 0.729137 73.847343 -20.261201 25.633453 -124.845991 49.617081 -89.928229 1.357168 -1.009436 -16.165890 -17.739410 -16.795559 5.121000 7.125000 0.000000 0.000000 8.315700 -45.909300 -0.187900 
-27.399832 17.329097 8.971863 -173.730899 -8.247056 -178.797430 16.234884 1.806223 -2.450297 -12.436253 -31.662029 -8.517074 -9.141563 7.364851 14.174313 -0.236670 3.377728 5.957535 13.427500 -18.931100 -70.448000 -21.479532 -3.347412 -5.120406 51.561857 16.227062 13.330037 15.182480 0.263891 1.837408 -4.397206 -14.526780 -44.039497 -1.099400 -6.662600 18.719600 6.641357 3.115582 11.517940 1.154768 4.442777 -4.458669 -2.099393 1.523267 -14.811994 5.133529 8.742102 -13.536932 5.220556 8.539462 19.351945 0.319300 3.535200 14.911300 8.723240 -7.407867 0.332121 -76.051717 8.096520 -1.748964 140.154678 -40.980000 -105.944089 0.404756 -0.059676 -65.105450 27.915359 32.458966 15.998900 -7.125000 0.000000 0.000000 -5.952000 66.115100 -3.037000 -9.066273 7.687569 0.674524 73.131106 -19.811520 24.355770 -126.723405 48.934941 -91.891045 1.305575 -0.951445 -16.341989 -17.935544 -16.881454 5.218300 7.125000 0.000000 0.000000 8.208300 -46.091200 -0.222600 
-27.407864 17.342191 8.988477 -173.609230 -8.382465 -178.680470 16.192776 1.778627 -2.465263 -12.128910 -31.642760 -8.616226 -9.167175 7.209747 13.756844 -0.364938 4.006621 5.966217 13.493500 -18.953200 -70.651500 -21.516726 -3.307188 -5.065745 51.832887 16.893222 13.758946 15.243138 0.678421 1.018820 -4.443483 -15.111326 -44.700751 -1.108900 -6.690300 18.801000 6.605499 3.112548 11.416312 1.202525 4.397414 -4.494659 -1.848697 1.518363 -14.884933 4.677358 8.442118 -13.652602 5.183131 8.146203 19.573340 0.345800 3.269300 15.085400 8.711995 -7.414310 0.347280 -75.115186 8.323510 -2.987456 141.703898 -39.751200 -107.098768 0.483523 -0.075288 -65.588202 27.943397 32.497112 16.062100 -7.125000 0.000000 0.000000 -6.030000 66.256000 -3.096500 -9.074999 7.675500 0.624412 72.385487 -19.609667 23.213888 -128.866410 48.071470 -94.027668 1.250154 -0.910173 -15.557086 -17.600890 -16.595794 5.045800 7.125000 0.000000 0.000000 8.491400 -45.832600 -0.175800 
